<?xml version="1.0" standalone="no"?><!DOCTYPE svg PUBLIC "-//W3C//DTD SVG 1.1//EN" "http://www.w3.org/Graphics/SVG/1.1/DTD/svg11.dtd">
<svg t="1699527907361" class="icon" viewBox="0 0 1081 1024" version="1.1"
  xmlns="http://www.w3.org/2000/svg" p-id="10712"
  xmlns:xlink="http://www.w3.org/1999/xlink" width="211.1328125" height="200">
  <path d="M928.558726 882.194677H153.047825A153.23036 153.23036 0 0 1 0 729.146852V153.047825A153.23036 153.23036 0 0 1 153.047825 0h775.510901a153.23036 153.23036 0 0 1 153.047825 153.047825V729.146852a153.23036 153.23036 0 0 1-153.047825 153.047825zM153.047825 31.346345a121.834233 121.834233 0 0 0-121.70148 121.70148V729.146852a121.834233 121.834233 0 0 0 121.70148 121.70148h775.510901a121.834233 121.834233 0 0 0 121.70148-121.70148V153.047825a121.834233 121.834233 0 0 0-121.70148-121.70148zM946.281276 1023.99167H135.325275a15.68147 15.68147 0 0 1 0-31.346345h810.956001a15.68147 15.68147 0 1 1 0 31.346345z" fill="#ffffff" p-id="10713"></path>
  <path d="M386.726613 474.426684a17.407261 17.407261 0 0 1-12.545175-29.554177l160.963233-165.377276a17.407261 17.407261 0 1 1 24.891222 24.293832l-160.963234 165.377277a17.357479 17.357479 0 0 1-12.346046 5.260344zM493.97459 613.601802a17.407261 17.407261 0 0 1-12.478799-29.554178l160.963234-165.377276a17.407261 17.407261 0 1 1 24.891221 24.293832l-160.963233 165.377277a17.357479 17.357479 0 0 1-12.412423 5.260345z" fill="#ffffff" p-id="10714" data-spm-anchor-id="a313x.search_index.0.i11.279e3a81uumvDG" class="selected"></path>
</svg>